<?xml version="1.0" standalone="no"?>
<!DOCTYPE svg PUBLIC "-//W3C//DTD SVG 20010904//EN"
 "http://www.w3.org/TR/2001/REC-SVG-20010904/DTD/svg10.dtd">
<svg version="1.0" xmlns="http://www.w3.org/2000/svg"
 width="180.000000pt" height="180.000000pt" viewBox="0 0 180.000000 180.000000"
 preserveAspectRatio="xMidYMid meet">
<metadata>
Created by potrace 1.15, written by Peter Selinger 2001-2017
</metadata>
<g transform="translate(0.000000,180.000000) scale(0.100000,-0.100000)"
fill="#000000" stroke="none">
<path d="M329 1791 c23 -6 22 -8 -29 -51 l-54 -45 32 -5 33 -5 -32 -38 -32
-38 -30 28 c-30 27 -30 27 4 -15 19 -24 38 -50 44 -58 9 -12 3 -34 -31 -118
-6 -16 -4 -18 14 -14 25 7 26 1 12 -37 l-10 -26 -92 62 c-111 75 -103 59 16
-31 56 -42 88 -74 92 -90 3 -14 10 -44 16 -68 6 -23 8 -45 5 -49 -4 -3 -65 17
-137 46 -73 28 -137 51 -143 50 -7 0 44 -28 112 -63 112 -56 122 -64 97 -70
-23 -6 -38 -26 -61 -83 -1 -2 -36 3 -78 11 -80 14 -106 4 -37 -14 22 -5 58
-15 80 -20 38 -10 40 -13 40 -48 0 -20 3 -47 6 -59 6 -22 3 -23 -49 -23 -30 0
-69 -3 -86 -6 -60 -12 -30 -24 62 -25 l92 0 32 -49 32 -48 -125 -33 c-68 -17
-124 -36 -124 -41 0 -4 1 -8 3 -8 1 0 66 11 145 25 158 27 192 23 192 -22 0
-20 -23 -34 -170 -108 -163 -82 -212 -112 -132 -80 20 8 99 39 175 69 136 54
138 54 147 33 8 -21 8 -21 15 6 4 15 13 27 20 27 12 0 51 -38 44 -43 -2 -2
-35 -28 -74 -58 -38 -30 -95 -67 -126 -82 -39 -19 -61 -37 -75 -62 -10 -19
-21 -35 -24 -35 -3 0 -23 -16 -45 -36 -35 -31 -36 -33 -7 -14 18 12 35 21 37
18 2 -2 -5 -28 -15 -58 -11 -30 -19 -69 -20 -86 0 -30 37 -93 73 -123 10 -8
17 -28 17 -47 l0 -34 104 0 104 0 4 76 c3 73 -5 101 -22 74 -14 -22 -140 4
-220 45 l-29 15 18 52 c34 98 53 138 65 137 17 -1 53 -18 39 -18 -23 -2 -32
-35 -21 -85 14 -68 37 -75 157 -45 114 29 134 47 120 111 -12 52 -15 57 -47
69 -23 9 -24 12 -11 25 14 13 22 12 70 -11 30 -13 60 -25 67 -25 6 0 12 -10
12 -21 0 -62 103 -148 224 -189 l62 -20 65 19 c105 33 202 106 230 174 9 20
30 37 78 60 36 17 69 33 73 35 4 2 12 -6 18 -18 10 -18 8 -21 -19 -26 -21 -5
-33 -16 -46 -45 -17 -36 -17 -40 -1 -64 27 -41 95 -56 96 -21 1 6 8 -1 16 -16
8 -16 38 -40 66 -54 49 -25 51 -25 68 -7 23 24 42 101 30 123 -6 12 -3 21 10
33 18 15 20 12 48 -56 45 -111 46 -122 14 -136 -69 -32 -122 -45 -184 -45
l-68 -1 0 -72 0 -73 110 0 110 0 0 29 c0 20 13 45 40 76 22 25 43 58 47 73 6
25 -6 97 -22 136 -7 16 -6 17 16 7 21 -10 20 -9 -4 10 -15 11 -38 42 -51 68
-25 48 -60 75 -126 94 -37 11 -169 103 -170 118 0 4 8 17 18 29 20 25 44 20
60 -13 9 -18 11 -19 11 -4 1 9 2 17 4 17 1 0 87 -34 192 -75 104 -41 190 -73
192 -72 1 2 -83 45 -188 97 -131 66 -188 99 -184 108 3 8 5 19 5 26 0 36 84
31 345 -19 17 -3 25 -2 20 3 -6 5 -68 24 -140 42 -71 19 -131 35 -133 36 -2 1
12 25 30 53 l33 50 85 1 c134 3 152 15 33 24 l-101 8 5 57 c3 31 9 59 12 63 4
4 46 18 94 30 48 13 87 26 87 29 0 3 -33 0 -72 -7 -107 -19 -114 -18 -128 16
-19 46 -79 67 -108 38 -6 -6 -14 -9 -18 -6 -3 3 60 39 140 79 79 41 143 75
142 77 -2 1 -61 -20 -131 -48 -71 -27 -132 -50 -137 -50 -5 0 -7 8 -4 18 2 9
7 42 11 72 l6 55 94 74 c52 40 95 75 95 77 0 2 -41 -23 -91 -56 -51 -33 -95
-58 -98 -54 -3 3 2 11 12 18 16 12 16 16 1 51 -9 22 -13 49 -9 66 4 18 2 36
-6 45 -10 12 -7 20 17 46 16 18 21 26 12 19 -14 -11 -21 -10 -40 3 l-22 16 24
0 c23 0 23 1 -10 29 l-35 28 34 8 33 7 -43 29 c-24 16 -43 34 -42 39 2 7 -198
10 -560 9 -309 -1 -551 -4 -538 -8z m924 -239 c72 -78 112 -179 97 -246 -7
-33 -5 -39 16 -53 23 -15 24 -17 8 -34 -10 -11 -12 -19 -6 -19 9 0 12 -46 12
-162 0 -167 -19 -287 -55 -357 -46 -91 -312 -241 -426 -241 -66 0 -128 19
-244 75 -136 66 -215 133 -240 202 -24 68 -39 416 -20 456 12 24 12 28 -6 38
-19 10 -19 11 2 49 18 32 20 42 9 54 -25 31 11 132 77 214 47 58 61 64 115 47
25 -7 85 -18 133 -24 50 -6 92 -16 97 -23 4 -7 8 -9 8 -4 0 5 6 4 13 -2 9 -8
20 -7 39 2 14 8 53 17 87 21 63 7 199 39 209 49 13 14 32 3 75 -42z m-968
-453 c28 -25 35 -38 35 -68 l0 -36 -20 42 c-22 50 -60 73 -85 53 -17 -14 -21
-85 -4 -95 7 -5 10 3 8 21 -4 48 0 64 15 64 7 0 19 -7 26 -15 11 -13 10 -18
-6 -31 -18 -15 -18 -15 8 -10 37 8 49 -27 19 -58 -12 -12 -21 -35 -21 -50 0
-24 -2 -27 -15 -16 -26 21 -16 -4 16 -43 17 -20 39 -37 49 -37 10 0 20 -9 23
-20 16 -60 -83 26 -119 104 -41 88 -28 226 21 226 8 0 30 -14 50 -31z m1279 9
c25 -36 21 -142 -8 -204 -36 -78 -135 -164 -119 -104 3 11 13 20 23 20 10 0
32 17 49 37 32 39 42 64 16 43 -13 -11 -15 -8 -15 16 0 15 -9 38 -21 50 -29
31 -18 68 17 60 14 -4 24 -2 24 4 0 5 -7 10 -16 10 -19 0 -14 20 9 34 23 14
31 1 30 -45 -1 -23 2 -37 8 -34 15 10 11 81 -6 95 -25 20 -63 -3 -85 -53 l-20
-42 0 37 c0 28 7 44 31 67 36 37 62 39 83 9z m-914 -696 c0 -46 157 -142 232
-142 82 0 196 63 225 126 16 32 45 45 57 25 11 -16 -59 -106 -106 -138 -26
-17 -78 -41 -114 -53 -59 -20 -71 -21 -108 -10 -102 30 -198 99 -223 158 -15
37 -11 52 18 52 12 0 19 -7 19 -18z m-198 -4 c9 -7 21 -30 26 -50 13 -50 -2
-62 -108 -87 -98 -23 -113 -18 -128 38 -13 52 0 63 98 89 92 25 93 25 112 10z
m955 -13 c11 -8 26 -30 33 -50 13 -38 50 -51 50 -17 0 26 10 33 30 22 15 -8
16 -15 7 -56 -6 -25 -16 -48 -22 -50 -6 -3 -28 2 -48 11 -28 12 -43 27 -60 63
-13 28 -30 48 -42 51 -17 3 -18 1 -6 -13 17 -20 7 -46 -17 -46 -43 0 -57 55
-21 91 22 22 54 20 96 -6z"/>
<path d="M498 1305 c-3 -3 -16 -8 -28 -10 -33 -6 -63 -36 -50 -49 6 -6 45 -13
88 -17 42 -4 121 -21 176 -38 112 -35 117 -36 110 -17 -6 16 -162 90 -227 107
-43 12 -48 11 -89 -15 l-43 -27 40 35 c22 20 37 36 34 36 -3 0 -8 -2 -11 -5z"/>
<path d="M1165 1261 c-11 -5 -62 -19 -113 -31 -64 -16 -96 -29 -103 -42 -8
-15 -6 -18 13 -18 13 0 50 7 83 14 100 23 158 28 209 16 32 -7 52 -7 60 -1 9
7 17 7 25 -2 11 -10 11 -8 2 11 -7 13 -20 26 -29 29 -9 3 -23 11 -31 17 -17
13 -89 17 -116 7z"/>
<path d="M450 1130 c-23 -15 5 -56 64 -97 l50 -34 105 7 c58 4 108 8 110 10 1
1 -1 9 -5 16 -5 7 -9 21 -9 32 0 28 -49 59 -97 62 -24 2 -79 5 -123 8 -44 3
-87 1 -95 -4z"/>
<path d="M1175 1130 c-22 -4 -43 -6 -47 -3 -30 17 -139 -51 -123 -77 4 -6 2
-17 -4 -24 -18 -22 191 -31 235 -10 33 16 104 86 104 103 0 4 -21 11 -46 15
-54 7 -64 7 -119 -4z"/>
<path d="M516 153 c-37 -32 -45 -44 -45 -73 -1 -79 0 -80 109 -80 105 0 112 4
100 50 -8 33 -44 34 -48 3 -3 -21 -9 -23 -63 -23 l-59 0 0 38 c0 31 6 43 30
60 25 19 42 22 117 22 81 0 89 -2 115 -27 23 -22 28 -35 28 -75 0 -41 3 -48
20 -48 17 0 20 7 20 48 0 44 -4 52 -48 95 l-48 47 -91 0 c-91 0 -92 0 -137
-37z"/>
<path d="M938 152 l-58 -37 0 -57 c0 -51 2 -58 20 -58 17 0 20 7 20 50 0 46 3
51 37 75 35 23 47 25 146 25 95 0 111 -3 137 -22 27 -19 30 -28 30 -75 0 -40
4 -53 15 -53 12 0 15 13 15 58 0 54 -3 61 -38 95 l-38 37 -114 0 -115 0 -57
-38z"/>
</g>
</svg>
